<svg xmlns="http://www.w3.org/2000/svg" viewBox="0 0 1000 1000"><path d="M 655.7 116.2 L 662.6 116.9 L 669.4 118.0 L 676.0 119.5 L 682.4 121.4 L 688.6 123.6 L 694.6 126.2 L 700.5 129.2 L 706.1 132.5 L 711.6 136.2 L 716.8 140.1 L 721.9 144.4 L 726.8 148.9 L 731.5 153.7 L 736.1 158.8 L 740.6 164.0 L 744.9 169.4 L 749.2 175.0 L 753.3 180.8 L 757.4 186.6 L 761.5 192.6 L 765.6 198.5 L 769.6 204.6 L 773.7 210.6 L 777.8 216.6 L 782.0 222.6 L 786.3 228.6 L 790.7 234.4 L 795.2 240.2 L 799.9 245.8 L 804.7 251.3 L 809.7 256.6 L 814.8 261.8 L 820.2 266.8 L 825.7 271.6 L 831.4 276.2 L 837.4 280.6 L 843.4 284.8 L 849.7 288.8 L 856.2 292.6 L 862.8 296.1 L 869.5 299.5 L 876.3 302.7 L 883.3 305.7 L 890.3 308.5 L 897.4 311.2 L 904.5 313.7 L 911.6 316.0 L 918.6 318.3 L 925.6 320.4 L 932.5 322.5 L 939.2 324.4 L 945.7 326.3 L 952.1 328.2 L 958.1 330.0 L 963.9 331.9 L 969.4 333.7 L 974.5 335.6 L 979.2 337.6 L 983.5 339.6 L 987.3 341.6 L 990.7 343.8 L 993.6 346.1 L 996.0 348.5 L 997.8 351.0 L 999.1 353.7 L 999.8 356.5 L 1000.0 359.5 L 999.6 362.6 L 998.7 365.9 L 997.2 369.4 L 995.1 373.0 L 992.5 376.8 L 989.4 380.8 L 985.8 384.9 L 981.8 389.2 L 977.3 393.7 L 972.4 398.3 L 967.1 403.1 L 961.4 408.0 L 955.5 413.1 L 949.3 418.2 L 942.9 423.5 L 936.3 429.0 L 929.5 434.5 L 922.7 440.1 L 915.9 445.9 L 909.0 451.7 L 902.2 457.6 L 895.6 463.6 L 889.0 469.6 L 882.6 475.7 L 876.5 481.9 L 870.6 488.1 L 865.0 494.4 L 859.8 500.8 L 854.9 507.1 L 850.4 513.6 L 846.3 520.1 L 842.6 526.6 L 839.4 533.2 L 836.6 539.8 L 834.3 546.5 L 832.5 553.3 L 831.1 560.1 L 830.2 566.9 L 829.7 573.8 L 829.7 580.8 L 830.1 587.9 L 831.0 595.0 L 832.2 602.2 L 833.8 609.5 L 835.7 616.8 L 837.9 624.2 L 840.4 631.6 L 843.1 639.2 L 846.1 646.8 L 849.2 654.4 L 852.5 662.1 L 855.8 669.9 L 859.2 677.7 L 862.6 685.5 L 866.0 693.4 L 869.3 701.3 L 872.5 709.1 L 875.6 717.0 L 878.6 724.8 L 881.3 732.7 L 883.7 740.4 L 886.0 748.1 L 887.9 755.7 L 889.5 763.3 L 890.8 770.7 L 891.7 778.0 L 892.3 785.1 L 892.5 792.1 L 892.2 798.9 L 891.6 805.5 L 890.6 811.9 L 889.2 818.1 L 887.3 824.0 L 885.1 829.7 L 882.4 835.2 L 879.4 840.4 L 876.0 845.3 L 872.2 849.9 L 868.0 854.2 L 863.5 858.2 L 858.7 861.9 L 853.6 865.4 L 848.1 868.5 L 842.5 871.3 L 836.5 873.8 L 830.4 876.0 L 824.0 878.0 L 817.4 879.6 L 810.7 881.0 L 803.8 882.1 L 796.8 883.0 L 789.6 883.6 L 782.4 884.0 L 775.1 884.1 L 767.7 884.1 L 760.3 883.8 L 752.9 883.4 L 745.4 882.8 L 738.0 882.1 L 730.5 881.2 L 723.0 880.3 L 715.6 879.2 L 708.1 878.0 L 700.7 876.7 L 693.4 875.4 L 686.0 874.0 L 678.7 872.6 L 671.4 871.1 L 664.2 869.7 L 657.0 868.1 L 649.8 866.6 L 642.6 865.1 L 635.5 863.6 L 628.4 862.0 L 621.3 860.5 L 614.2 859.0 L 607.2 857.4 L 600.1 855.9 L 593.0 854.4 L 586.0 852.8 L 578.9 851.3 L 571.9 849.7 L 564.8 848.1 L 557.7 846.6 L 550.6 844.9 L 543.5 843.3 L 536.4 841.6 L 529.2 839.9 L 522.1 838.1 L 514.9 836.3 L 507.7 834.4 L 500.5 832.5 L 493.2 830.5 L 486.0 828.4 L 478.8 826.3 L 471.5 824.1 L 464.2 821.9 L 457.0 819.5 L 449.7 817.2 L 442.4 814.7 L 435.1 812.3 L 427.8 809.7 L 420.5 807.2 L 413.3 804.6 L 406.0 801.9 L 398.7 799.3 L 391.5 796.6 L 384.2 793.9 L 377.0 791.3 L 369.7 788.6 L 362.5 786.0 L 355.3 783.4 L 348.1 780.8 L 340.9 778.3 L 333.6 775.8 L 326.4 773.5 L 319.2 771.1 L 312.0 768.9 L 304.8 766.7 L 297.6 764.6 L 290.3 762.6 L 283.1 760.7 L 275.8 758.9 L 268.6 757.1 L 261.3 755.5 L 254.0 753.9 L 246.7 752.4 L 239.5 750.9 L 232.2 749.5 L 224.8 748.1 L 217.5 746.8 L 210.2 745.4 L 202.9 744.1 L 195.6 742.7 L 188.4 741.3 L 181.1 739.9 L 173.9 738.4 L 166.7 736.8 L 159.5 735.1 L 152.4 733.3 L 145.4 731.3 L 138.4 729.2 L 131.5 726.9 L 124.7 724.3 L 118.0 721.6 L 111.3 718.7 L 104.8 715.5 L 98.5 712.0 L 92.2 708.3 L 86.1 704.3 L 80.2 700.0 L 74.4 695.4 L 68.8 690.6 L 63.4 685.4 L 58.1 680.0 L 53.1 674.2 L 48.3 668.2 L 43.6 661.8 L 39.2 655.3 L 35.1 648.4 L 31.1 641.3 L 27.4 634.0 L 23.9 626.4 L 20.6 618.7 L 17.6 610.8 L 14.8 602.8 L 12.3 594.6 L 10.0 586.3 L 7.9 578.0 L 6.1 569.6 L 4.5 561.2 L 3.2 552.8 L 2.1 544.4 L 1.2 536.2 L 0.6 528.0 L 0.2 519.9 L 0.0 512.0 L 0.0 504.2 L 0.3 496.6 L 0.8 489.3 L 1.5 482.2 L 2.5 475.4 L 3.6 468.8 L 5.0 462.6 L 6.6 456.6 L 8.4 451.0 L 10.4 445.7 L 12.6 440.8 L 15.1 436.2 L 17.7 431.9 L 20.6 428.0 L 23.7 424.4 L 27.0 421.1 L 30.6 418.2 L 34.4 415.7 L 38.3 413.4 L 42.6 411.4 L 47.0 409.8 L 51.7 408.3 L 56.6 407.2 L 61.7 406.3 L 67.0 405.6 L 72.6 405.1 L 78.4 404.7 L 84.4 404.6 L 90.6 404.5 L 97.0 404.6 L 103.6 404.7 L 110.4 404.9 L 117.4 405.2 L 124.6 405.4 L 131.9 405.7 L 139.4 405.9 L 147.1 406.1 L 154.9 406.2 L 162.8 406.3 L 170.8 406.3 L 178.9 406.1 L 187.0 405.8 L 195.2 405.4 L 203.5 404.8 L 211.8 404.1 L 220.1 403.2 L 228.3 402.1 L 236.6 400.9 L 244.7 399.4 L 252.9 397.8 L 260.9 396.0 L 268.8 393.9 L 276.6 391.7 L 284.3 389.3 L 291.9 386.7 L 299.3 383.9 L 306.5 380.9 L 313.5 377.7 L 320.4 374.3 L 327.1 370.8 L 333.6 367.1 L 339.9 363.2 L 345.9 359.1 L 351.8 354.9 L 357.5 350.6 L 363.0 346.1 L 368.4 341.4 L 373.5 336.6 L 378.5 331.7 L 383.3 326.7 L 388.0 321.5 L 392.6 316.2 L 397.0 310.8 L 401.4 305.4 L 405.7 299.8 L 409.9 294.1 L 414.1 288.4 L 418.3 282.5 L 422.4 276.6 L 426.6 270.7 L 430.8 264.7 L 435.1 258.6 L 439.5 252.5 L 443.9 246.4 L 448.5 240.2 L 453.1 234.1 L 458.0 227.9 L 462.9 221.8 L 468.1 215.6 L 473.4 209.6 L 478.8 203.5 L 484.5 197.6 L 490.3 191.7 L 496.4 185.9 L 502.6 180.2 L 509.0 174.7 L 515.5 169.3 L 522.3 164.1 L 529.2 159.0 L 536.2 154.1 L 543.4 149.5 L 550.7 145.1 L 558.2 140.9 L 565.7 137.0 L 573.2 133.4 L 580.9 130.1 L 588.5 127.1 L 596.2 124.5 L 603.9 122.1 L 611.5 120.1 L 619.1 118.5 L 626.6 117.3 L 634.1 116.4 L 641.4 116.0 L 648.6 115.9 Z" fill="#111"/></svg>
